<?xml version="1.0" standalone="no"?>
<!DOCTYPE svg PUBLIC "-//W3C//DTD SVG 20010904//EN"
 "http://www.w3.org/TR/2001/REC-SVG-20010904/DTD/svg10.dtd">
<svg version="1.0" xmlns="http://www.w3.org/2000/svg"
 width="1000.000000pt" height="1000.000000pt" viewBox="0 0 1000.000000 1000.000000"
 preserveAspectRatio="xMidYMid meet">
<metadata>
Created by potrace 1.11, written by Peter Selinger 2001-2013
</metadata>
<g transform="translate(0.000000,1000.000000) scale(0.100000,-0.100000)"
fill="#000000" stroke="none">
<path d="M2263 7383 c-12 -32 -63 -164 -113 -293 -50 -129 -113 -291 -140
-360 -77 -199 -201 -518 -285 -735 -163 -419 -465 -1199 -559 -1445 -37 -96
-71 -184 -76 -195 -5 -11 -25 -60 -44 -110 -54 -142 -183 -474 -285 -735 -96
-248 -341 -879 -367 -947 l-24 -63 353 0 352 0 17 43 c9 23 28 76 43 117 15
41 30 84 35 95 5 11 26 70 48 130 22 61 84 229 137 375 53 146 112 306 130
355 18 50 42 115 53 145 l20 55 1145 1 1146 1 15 -41 c7 -23 82 -221 166 -441
83 -220 164 -434 179 -475 16 -41 52 -139 82 -217 l54 -143 363 0 c343 0 364
1 358 17 -24 62 -318 823 -362 935 -30 75 -54 139 -54 143 0 3 -9 24 -19 48
-11 23 -29 69 -41 102 -11 33 -27 74 -34 90 -8 17 -39 98 -70 180 -31 83 -61
159 -66 170 -5 11 -45 112 -88 225 -166 432 -384 996 -397 1025 -7 17 -50 127
-95 245 -46 118 -96 249 -112 290 -16 41 -40 102 -52 135 -43 109 -192 495
-346 890 -84 215 -156 402 -162 418 l-10 27 -437 0 -437 0 -21 -57z m471 -580
c10 -27 21 -57 26 -68 5 -11 34 -90 65 -175 102 -277 316 -853 340 -915 14
-33 67 -175 119 -315 52 -140 149 -401 215 -579 67 -178 121 -326 121 -330 0
-3 -413 -6 -919 -6 l-919 0 28 75 c117 317 211 570 265 715 76 205 267 719
308 830 16 44 38 105 48 135 11 30 24 64 29 75 7 17 184 495 212 578 16 43 43
35 62 -20z"/>
<path d="M5690 4970 l0 -2470 340 0 c317 0 340 1 341 18 0 9 1 427 0 927 0
501 2 919 4 930 4 20 12 20 932 19 510 0 955 4 988 8 55 7 178 26 215 33 58
11 159 42 235 72 416 166 711 504 824 946 46 178 56 277 55 507 -1 150 -16
300 -38 395 -100 425 -339 743 -692 919 -124 61 -296 118 -401 131 -44 6 -108
17 -128 23 -11 3 -617 8 -1347 9 l-1328 4 0 -2471z m2476 1866 c157 -11 310
-56 402 -117 24 -16 45 -29 48 -29 5 0 74 -61 106 -95 82 -85 164 -262 193
-420 27 -139 24 -404 -4 -503 -5 -18 -10 -36 -11 -40 -11 -89 -86 -247 -163
-342 -58 -71 -145 -146 -222 -189 -56 -32 -181 -79 -229 -86 -17 -3 -56 -9
-86 -14 -30 -5 -454 -10 -941 -10 l-886 -2 0 925 0 925 31 3 c57 6 1680 0
1762 -6z"/>
</g>
</svg>
